{"glyphs":{"0":{"ha":764,"x_min":0,"x_max":625,"o":"m 69 0 l 0 69 l 0 556 l 69 625 l 556 625 l 625 556 l 625 69 l 556 0 l 69 0 m 139 208 l 417 486 l 139 486 l 139 208 m 486 417 l 208 139 l 486 139 l 486 417 z "},"1":{"ha":694,"x_min":0,"x_max":556,"o":"m 0 0 l 0 69 l 69 139 l 208 139 l 208 486 l 0 486 l 0 556 l 69 625 l 347 625 l 347 139 l 481 139 l 556 64 l 556 0 l 0 0 z "},"2":{"ha":764,"x_min":0,"x_max":625,"o":"m 0 556 l 76 625 l 556 625 l 625 556 l 625 347 l 556 278 l 208 278 l 139 208 l 139 139 l 556 139 l 625 69 l 625 0 l 0 0 l 0 278 l 69 347 l 417 347 l 486 417 l 486 486 l 0 486 l 0 556 z "},"3":{"ha":764,"x_min":0,"x_max":625,"o":"m 0 556 l 69 625 l 556 625 l 625 549 l 625 417 l 556 347 l 556 278 l 625 208 l 625 69 l 556 0 l 69 0 l 0 69 l 0 139 l 486 139 l 486 208 l 417 278 l 208 278 l 208 347 l 417 347 l 486 417 l 486 492 l 0 486 l 0 556 z "},"4":{"ha":764,"x_min":0,"x_max":625,"o":"m 139 417 l 208 347 l 417 347 l 486 417 l 486 625 l 556 625 l 625 556 l 625 69 l 556 0 l 486 0 l 481 208 l 417 278 l 69 278 l 0 347 l 0 556 l 69 625 l 139 625 l 139 417 z "},"5":{"ha":764,"x_min":0,"x_max":625,"o":"m 139 486 l 139 417 l 208 347 l 556 347 l 625 278 l 625 139 l 486 0 l 69 0 l 0 69 l 0 139 l 417 139 l 486 208 l 417 278 l 69 278 l 0 347 l 0 561 l 69 625 l 556 625 l 625 556 l 625 486 l 139 486 z "},"6":{"ha":764,"x_min":0,"x_max":625,"o":"m 0 556 l 69 625 l 556 625 l 625 556 l 625 486 l 139 486 l 139 417 l 208 347 l 556 347 l 625 278 l 625 69 l 556 0 l 69 0 l 0 69 l 0 208 l 0 424 l 0 556 m 139 139 l 486 139 l 486 208 l 417 278 l 208 278 l 139 208 l 139 139 z "},"7":{"ha":764,"x_min":0,"x_max":625,"o":"m 0 556 l 69 625 l 556 625 l 625 556 l 625 69 l 556 0 l 486 0 l 486 486 l 0 486 l 0 556 z "},"8":{"ha":764,"x_min":0,"x_max":625,"o":"m 69 0 l 0 69 l 0 211 l 69 278 l 69 347 l 0 417 l 0 556 l 69 625 l 556 625 l 625 556 l 625 417 l 556 347 l 556 278 l 625 208 l 625 69 l 556 0 l 69 0 m 139 139 l 486 139 l 486 208 l 417 278 l 208 278 l 139 208 l 139 139 m 139 486 l 139 417 l 208 347 l 417 347 l 486 417 l 486 486 l 139 486 z "},"9":{"ha":764,"x_min":0,"x_max":625,"o":"m 625 69 l 556 0 l 69 0 l 0 69 l 0 139 l 486 139 l 486 208 l 417 278 l 69 278 l 0 347 l 0 556 l 69 625 l 556 625 l 625 556 l 625 417 l 625 201 l 625 69 m 486 486 l 139 486 l 139 417 l 208 347 l 417 347 l 486 417 l 486 486 z "}," ":{"ha":764,"x_min":0,"x_max":0,"o":""}," ":{"ha":764,"x_min":0,"x_max":0,"o":""},"O":{"ha":764,"x_min":0,"x_max":625,"o":"m 69 0 l 0 69 l 0 556 l 69 625 l 556 625 l 625 556 l 625 69 l 556 0 l 69 0 m 139 139 l 486 139 l 486 486 l 139 486 l 139 139 z "},"E":{"ha":764,"x_min":0,"x_max":625,"o":"m 0 556 l 69 625 l 556 625 l 625 556 l 625 486 l 139 486 l 139 426 l 208 347 l 486 347 l 486 278 l 208 278 l 139 208 l 139 139 l 625 139 l 625 69 l 549 0 l 69 0 l 0 69 l 0 556 z "},"F":{"ha":764,"x_min":0,"x_max":625,"o":"m 0 556 l 69 625 l 556 625 l 625 556 l 625 486 l 139 486 l 139 426 l 208 347 l 486 347 l 486 278 l 208 278 l 139 208 l 139 0 l 69 0 l 0 69 l 0 556 z "},"H":{"ha":764,"x_min":0,"x_max":625,"o":"m 139 625 l 139 417 l 208 347 l 417 347 l 486 411 l 486 625 l 556 625 l 625 556 l 625 69 l 556 0 l 486 0 l 486 208 l 417 278 l 208 278 l 139 208 l 139 0 l 69 0 l 0 69 l 0 556 l 69 625 l 139 625 z "},"A":{"ha":764,"x_min":0,"x_max":625,"o":"m 69 0 l 0 69 l 0 556 l 69 625 l 556 625 l 625 556 l 625 69 l 556 0 l 486 0 l 486 208 l 417 278 l 208 278 l 139 208 l 139 0 l 69 0 m 139 486 l 139 417 l 208 347 l 417 347 l 486 417 l 486 486 l 139 486 z "},"P":{"ha":764,"x_min":0,"x_max":625,"o":"m 69 0 l 0 69 l 0 556 l 69 625 l 556 625 l 625 556 l 625 347 l 556 278 l 208 278 l 139 208 l 139 0 l 69 0 m 139 486 l 139 417 l 208 347 l 417 347 l 486 417 l 486 486 l 139 486 z "},"L":{"ha":764,"x_min":0,"x_max":625,"o":"m 69 625 l 139 625 l 139 139 l 625 139 l 625 69 l 556 0 l 69 0 l 0 69 l 0 556 l 69 625 z "},"C":{"ha":764,"x_min":0,"x_max":625,"o":"m 0 556 l 69 625 l 556 625 l 625 556 l 625 486 l 139 486 l 139 139 l 625 139 l 625 69 l 549 0 l 69 0 l 0 69 l 0 556 z "},"B":{"ha":764,"x_min":0,"x_max":625,"o":"m 69 0 l 0 69 l 0 556 l 69 625 l 486 625 l 625 486 l 625 417 l 556 347 l 556 278 l 625 208 l 625 139 l 486 0 l 69 0 m 139 139 l 486 139 l 486 208 l 417 278 l 208 278 l 139 208 l 139 139 m 139 486 l 139 417 l 208 347 l 417 347 l 486 417 l 486 486 l 139 486 z "},"D":{"ha":764,"x_min":0,"x_max":625,"o":"m 69 0 l 0 69 l 0 556 l 69 625 l 486 625 l 625 486 l 625 139 l 486 0 l 69 0 m 139 139 l 417 139 l 486 208 l 486 417 l 417 486 l 139 486 l 139 139 z "},"S":{"ha":764,"x_min":0,"x_max":625,"o":"m 625 486 l 139 486 l 139 417 l 208 347 l 556 347 l 625 278 l 625 69 l 556 0 l 0 0 l 0 69 l 69 139 l 486 139 l 486 208 l 417 278 l 69 278 l 0 347 l 0 556 l 69 625 l 549 625 l 625 556 l 625 486 z "},"G":{"ha":764,"x_min":0,"x_max":625,"o":"m 0 556 l 69 625 l 556 625 l 625 556 l 625 486 l 139 486 l 139 139 l 486 139 l 486 208 l 417 278 l 278 278 l 278 347 l 556 347 l 625 278 l 625 69 l 549 0 l 69 0 l 0 69 l 0 556 z "},"U":{"ha":764,"x_min":0,"x_max":625,"o":"m 139 625 l 139 139 l 486 139 l 486 625 l 556 625 l 625 556 l 625 69 l 556 0 l 69 0 l 0 69 l 0 556 l 69 625 l 139 625 z "},"T":{"ha":694,"x_min":0,"x_max":556,"o":"m 0 556 l 69 625 l 486 625 l 556 556 l 556 486 l 347 486 l 347 0 l 278 0 l 208 69 l 208 486 l 0 486 l 0 556 z "},"I":{"ha":694,"x_min":0,"x_max":556,"o":"m 0 0 l 0 69 l 69 139 l 208 139 l 208 486 l 0 486 l 0 556 l 69 625 l 486 625 l 556 556 l 556 486 l 347 486 l 347 139 l 486 139 l 556 69 l 556 0 l 0 0 z "},"V":{"ha":764,"x_min":0,"x_max":625,"o":"m 0 556 l 69 625 l 139 625 l 139 347 l 278 139 l 347 139 l 486 347 l 486 625 l 556 625 l 625 556 l 625 278 l 417 0 l 208 0 l 0 278 l 0 556 z "},"W":{"ha":764,"x_min":0,"x_max":625,"o":"m 417 0 l 347 69 l 278 69 l 208 0 l 69 0 l 0 69 l 0 556 l 69 625 l 139 625 l 139 139 l 199 139 l 278 208 l 278 417 l 347 417 l 347 208 l 417 139 l 486 139 l 486 625 l 556 625 l 625 549 l 625 69 l 556 0 l 417 0 z "},"Z":{"ha":764,"x_min":0,"x_max":625,"o":"m 556 139 l 625 69 l 625 0 l 69 0 l 0 69 l 347 417 l 347 486 l 0 486 l 0 556 l 69 625 l 556 625 l 625 556 l 278 208 l 278 139 l 556 139 z "},"Y":{"ha":764,"x_min":0,"x_max":625,"o":"m 0 556 l 69 625 l 139 625 l 139 417 l 208 347 l 417 347 l 486 417 l 486 625 l 556 625 l 625 556 l 625 69 l 556 0 l 69 0 l 0 69 l 0 139 l 486 139 l 486 208 l 417 278 l 69 278 l 0 347 l 0 556 z "},"X":{"ha":764,"x_min":0,"x_max":625,"o":"m 0 556 l 69 625 l 139 625 l 139 486 l 278 347 l 347 347 l 486 486 l 486 625 l 556 625 l 625 556 l 625 486 l 486 347 l 486 278 l 625 139 l 625 69 l 556 0 l 486 0 l 486 139 l 347 278 l 278 278 l 139 139 l 139 0 l 69 0 l 0 69 l 0 139 l 139 278 l 139 347 l 0 486 l 0 556 z "},"R":{"ha":764,"x_min":0,"x_max":625,"o":"m 139 278 l 139 0 l 69 0 l 0 69 l 0 556 l 69 625 l 556 625 l 625 556 l 625 347 l 556 278 l 486 278 l 625 139 l 625 0 l 561 0 l 486 69 l 486 139 l 347 278 l 139 278 m 139 486 l 139 417 l 208 347 l 417 347 l 486 417 l 486 486 l 139 486 z "},"K":{"ha":764,"x_min":0,"x_max":625,"o":"m 0 556 l 69 625 l 139 625 l 139 417 l 208 347 l 347 347 l 486 486 l 486 625 l 556 625 l 625 556 l 625 486 l 486 347 l 486 278 l 625 139 l 625 69 l 556 0 l 486 0 l 486 139 l 347 278 l 208 278 l 139 208 l 139 0 l 69 0 l 0 69 l 0 556 z "},"J":{"ha":764,"x_min":0,"x_max":625,"o":"m 0 208 l 69 278 l 139 278 l 139 139 l 486 139 l 486 486 l 0 486 l 0 556 l 69 625 l 556 625 l 625 556 l 625 69 l 556 0 l 69 0 l 0 69 l 0 208 z "},"N":{"ha":764,"x_min":0,"x_max":625,"o":"m 139 0 l 69 0 l 0 69 l 0 556 l 69 625 l 139 625 l 139 556 l 486 208 l 486 625 l 556 625 l 625 556 l 625 69 l 556 0 l 486 0 l 486 69 l 139 417 l 139 0 z "},"M":{"ha":764,"x_min":0,"x_max":625,"o":"m 69 0 l 0 69 l 0 556 l 69 625 l 139 625 l 139 556 l 278 417 l 347 417 l 486 556 l 486 625 l 556 625 l 625 556 l 625 69 l 556 0 l 486 0 l 486 417 l 347 278 l 278 278 l 139 417 l 139 0 l 69 0 z "},"Q":{"ha":764,"x_min":0,"x_max":625,"o":"m 69 0 l 0 69 l 0 556 l 69 625 l 556 625 l 625 556 l 625 69 l 556 0 l 69 0 m 139 139 l 417 139 l 417 278 l 486 347 l 486 486 l 139 486 l 139 139 z "},"]":{"ha":486,"x_min":0,"x_max":347,"o":"m 69 0 l 0 69 l 0 139 l 208 139 l 208 486 l 0 486 l 0 556 l 69 625 l 278 625 l 347 556 l 347 69 l 278 0 l 69 0 z "},"[":{"ha":486,"x_min":0,"x_max":347,"o":"m 69 0 l 0 69 l 0 556 l 69 625 l 278 625 l 347 556 l 347 486 l 139 486 l 139 139 l 347 139 l 347 69 l 278 0 l 69 0 z "},"\\":{"ha":764,"x_min":0,"x_max":625,"o":"m 0 556 l 69 625 l 625 69 l 556 0 l 0 556 z "},"/":{"ha":764,"x_min":0,"x_max":625,"o":"m 69 0 l 0 69 l 556 625 l 625 556 l 69 0 z "},"_":{"ha":764,"x_min":0,"x_max":625,"o":"m 0 139 l 625 139 l 625 69 l 556 0 l 69 0 l 0 69 l 0 139 z "},"-":{"ha":764,"x_min":0,"x_max":625,"o":"m 69 347 l 556 347 l 625 278 l 625 208 l 0 208 l 0 278 l 69 347 z "},"|":{"ha":278,"x_min":0,"x_max":139,"o":"m 69 625 l 139 625 l 139 0 l 69 0 l 0 69 l 0 556 l 69 625 z "},"=":{"ha":764,"x_min":0,"x_max":625,"o":"m 0 417 l 69 486 l 556 486 l 625 417 l 625 347 l 0 347 l 0 417 m 0 278 l 625 278 l 625 208 l 556 139 l 69 139 l 0 208 l 0 278 z "},"(":{"ha":486,"x_min":0,"x_max":347,"o":"m 139 0 l 0 139 l 0 486 l 139 625 l 278 625 l 347 556 l 347 486 l 208 486 l 139 417 l 139 208 l 208 139 l 347 139 l 347 69 l 278 0 l 139 0 z "},")":{"ha":486,"x_min":0,"x_max":347,"o":"m 69 0 l 0 69 l 0 139 l 139 139 l 208 208 l 208 417 l 139 486 l 0 486 l 0 556 l 69 625 l 208 625 l 347 486 l 347 139 l 208 0 l 69 0 z "},"!":{"ha":278,"x_min":0,"x_max":139,"o":"m 69 625 l 139 625 l 139 278 l 69 208 l 0 208 l 0 556 l 69 625 m 69 139 l 139 139 l 139 0 l 0 0 l 0 69 l 69 139 z "},"\"":{"ha":486,"x_min":0,"x_max":347,"o":"m 278 625 l 347 625 l 347 417 l 278 347 l 208 347 l 208 556 l 278 625 m 69 625 l 139 625 l 139 417 l 69 347 l 0 347 l 0 556 l 69 625 z "},"'":{"ha":278,"x_min":0,"x_max":139,"o":"m 69 625 l 139 625 l 139 417 l 69 347 l 0 347 l 0 556 l 69 625 z "},"#":{"ha":764,"x_min":0,"x_max":625,"o":"m 0 208 l 69 278 l 139 278 l 139 347 l 69 347 l 0 417 l 0 481 l 133 486 l 139 625 l 208 625 l 278 556 l 278 486 l 347 486 l 347 561 l 417 625 l 486 625 l 492 486 l 625 486 l 625 417 l 556 347 l 486 347 l 486 278 l 556 272 l 625 208 l 625 139 l 486 139 l 486 0 l 417 0 l 347 69 l 347 139 l 278 139 l 278 69 l 208 0 l 139 0 l 139 139 l 0 139 l 0 208 m 208 347 l 208 278 l 417 278 l 417 347 l 208 347 z "},".":{"ha":278,"x_min":0,"x_max":139,"o":"m 0 0 l 0 69 l 69 139 l 139 139 l 139 0 l 0 0 z "},",":{"ha":278,"x_min":0,"x_max":139,"o":"m 0 139 l 69 139 l 139 69 l 139 0 l 139 -139 l 69 -139 l 69 0 l 0 0 l 0 139 z "},":":{"ha":278,"x_min":0,"x_max":139,"o":"m 139 208 l 139 69 l 69 69 l 0 139 l 0 208 l 139 208 m 0 417 l 0 486 l 69 556 l 139 556 l 139 417 l 0 417 z "},";":{"ha":278,"x_min":0,"x_max":139,"o":"m 0 417 l 0 486 l 69 556 l 139 556 l 139 417 l 0 417 m 0 139 l 69 139 l 139 69 l 139 0 l 139 -139 l 69 -139 l 69 0 l 0 0 l 0 139 z "},"<":{"ha":486,"x_min":0,"x_max":347,"o":"m 0 347 l 208 556 l 278 556 l 347 486 l 347 417 l 208 417 l 139 347 l 139 278 l 208 208 l 347 208 l 347 139 l 278 69 l 208 69 l 0 278 l 0 347 z "},">":{"ha":486,"x_min":0,"x_max":347,"o":"m 347 278 l 139 69 l 69 69 l 0 139 l 0 208 l 139 208 l 208 278 l 208 347 l 139 417 l 0 417 l 0 486 l 69 556 l 139 556 l 347 347 l 347 278 z "},"{":{"ha":486,"x_min":0,"x_max":347,"o":"m 0 347 l 69 417 l 69 556 l 139 625 l 347 625 l 347 556 l 278 556 l 208 486 l 208 417 l 139 347 l 139 278 l 208 208 l 208 139 l 278 69 l 347 69 l 347 0 l 139 0 l 69 69 l 69 208 l 0 278 l 0 347 z "},"}":{"ha":486,"x_min":0,"x_max":347,"o":"m 347 278 l 278 208 l 278 69 l 208 0 l 0 0 l 0 69 l 69 69 l 139 139 l 139 208 l 208 278 l 208 347 l 139 417 l 139 486 l 69 556 l 0 556 l 0 625 l 208 625 l 278 556 l 278 417 l 347 347 l 347 278 z "},"^":{"ha":625,"x_min":0,"x_max":486,"o":"m 278 625 l 486 417 l 486 347 l 417 278 l 347 278 l 347 417 l 278 486 l 208 486 l 139 417 l 139 278 l 69 278 l 0 347 l 0 417 l 208 625 l 278 625 z "},"`":{"ha":347,"x_min":0,"x_max":208,"o":"m 208 486 l 208 417 l 139 347 l 0 486 l 0 556 l 69 625 l 208 486 z "},"?":{"ha":764,"x_min":0,"x_max":625,"o":"m 0 556 l 76 625 l 556 625 l 625 556 l 625 347 l 556 278 l 417 278 l 347 208 l 278 208 l 208 139 l 208 278 l 278 347 l 417 347 l 486 417 l 486 486 l 0 486 l 0 556 m 208 69 l 278 139 l 347 139 l 347 0 l 208 0 l 208 69 z "},"+":{"ha":694,"x_min":0,"x_max":556,"o":"m 0 208 l 0 278 l 69 347 l 208 347 l 208 486 l 278 556 l 347 556 l 347 347 l 486 347 l 556 278 l 556 208 l 347 208 l 347 0 l 278 0 l 208 69 l 208 208 l 0 208 z "},"@":{"ha":764,"x_min":0,"x_max":625,"o":"m 139 139 l 625 139 l 625 69 l 556 0 l 69 0 l 0 69 l 0 556 l 69 625 l 556 625 l 625 556 l 625 278 l 556 208 l 278 208 l 208 278 l 208 347 l 278 417 l 347 417 l 347 278 l 417 278 l 486 347 l 486 486 l 139 486 l 139 139 z "},"$":{"ha":764,"x_min":0,"x_max":625,"o":"m 625 486 l 139 486 l 139 417 l 208 347 l 556 347 l 625 278 l 625 69 l 556 0 l 0 0 l 0 69 l 69 139 l 486 139 l 486 208 l 417 278 l 69 278 l 0 347 l 0 556 l 69 625 l 549 625 l 625 556 l 625 486 m 278 694 l 347 694 l 347 -69 l 278 -69 l 278 694 z "},"%":{"ha":764,"x_min":0,"x_max":625,"o":"m 417 139 l 486 208 l 556 208 l 625 139 l 625 75 l 563 0 l 486 0 l 417 69 l 417 139 m 486 69 l 556 69 l 556 139 l 486 139 l 486 69 m 69 0 l 0 69 l 556 625 l 625 556 l 69 0 m 0 556 l 69 625 l 139 625 l 208 556 l 208 492 l 146 417 l 69 417 l 0 486 l 0 556 m 69 486 l 139 486 l 139 556 l 69 556 l 69 486 z "},"&":{"ha":903,"x_min":0,"x_max":764,"o":"m 69 0 l 0 69 l 0 211 l 69 278 l 69 347 l 0 417 l 0 556 l 69 625 l 486 625 l 556 556 l 556 417 l 486 347 l 486 278 l 556 208 l 556 69 l 486 0 l 69 0 m 139 139 l 417 139 l 417 208 l 347 278 l 208 278 l 139 208 l 139 139 m 139 486 l 139 417 l 208 347 l 347 347 l 417 417 l 417 486 l 139 486 m 556 347 l 694 347 l 764 278 l 764 208 l 625 208 l 625 278 l 556 347 m 556 0 l 625 69 l 625 139 l 764 139 l 764 69 l 694 0 l 556 0 z "},"*":{"ha":1157,"x_min":208,"x_max":764,"o":"m 556 625 l 556 424 l 694 556 l 764 486 l 694 417 l 694 347 l 764 278 l 694 208 l 556 347 l 556 208 l 486 139 l 417 139 l 417 347 l 278 208 l 208 278 l 278 347 l 278 417 l 208 486 l 278 556 l 417 417 l 417 556 l 486 625 l 556 625 z "},"~":{"ha":694,"x_min":0,"x_max":556,"o":"m 139 208 l 69 208 l 0 278 l 0 347 l 139 486 l 208 486 l 347 347 l 417 347 l 417 486 l 486 486 l 556 417 l 556 347 l 417 208 l 347 208 l 208 347 l 139 347 l 139 208 z "},"Ä":{"ha":764,"x_min":0,"x_max":625,"o":"m 417 694 l 417 764 l 486 833 l 556 833 l 556 694 l 417 694 m 69 0 l 0 69 l 0 556 l 69 625 l 556 625 l 625 556 l 625 69 l 556 0 l 486 0 l 486 208 l 417 278 l 208 278 l 139 208 l 139 0 l 69 0 m 139 486 l 139 417 l 208 347 l 417 347 l 486 417 l 486 486 l 139 486 m 69 694 l 69 833 l 139 833 l 208 764 l 208 694 l 69 694 z "},"Á":{"ha":764,"x_min":0,"x_max":625,"o":"m 69 0 l 0 69 l 0 556 l 69 625 l 556 625 l 625 556 l 625 69 l 556 0 l 486 0 l 486 208 l 417 278 l 208 278 l 139 208 l 139 0 l 69 0 m 139 486 l 139 417 l 208 347 l 417 347 l 486 417 l 486 486 l 139 486 m 347 694 l 347 764 l 417 833 l 486 833 l 486 764 l 417 694 l 347 694 z "},"À":{"ha":764,"x_min":0,"x_max":625,"o":"m 69 0 l 0 69 l 0 556 l 69 625 l 556 625 l 625 556 l 625 69 l 556 0 l 486 0 l 486 208 l 417 278 l 208 278 l 139 208 l 139 0 l 69 0 m 139 486 l 139 417 l 208 347 l 417 347 l 486 417 l 486 486 l 139 486 m 278 694 l 208 764 l 208 833 l 278 833 l 347 764 l 347 694 l 278 694 z "},"Â":{"ha":764,"x_min":0,"x_max":625,"o":"m 69 0 l 0 69 l 0 556 l 69 625 l 556 625 l 625 556 l 625 69 l 556 0 l 486 0 l 486 208 l 417 278 l 208 278 l 139 208 l 139 0 l 69 0 m 139 486 l 139 417 l 208 347 l 417 347 l 486 417 l 486 486 l 139 486 m 139 694 l 139 764 l 208 833 l 278 833 l 278 764 l 208 694 l 139 694 m 417 694 l 347 764 l 347 833 l 417 833 l 486 764 l 486 694 l 417 694 z "},"Ã":{"ha":764,"x_min":0,"x_max":625,"o":"m 417 694 l 417 764 l 486 833 l 556 833 l 556 764 l 486 694 l 417 694 m 69 0 l 0 69 l 0 556 l 69 625 l 556 625 l 625 556 l 625 69 l 556 0 l 486 0 l 486 208 l 417 278 l 208 278 l 139 208 l 139 0 l 69 0 m 139 486 l 139 417 l 208 347 l 417 347 l 486 417 l 486 486 l 139 486 m 139 694 l 139 764 l 208 833 l 278 833 l 278 764 l 208 694 l 139 694 m 347 694 l 278 764 l 278 833 l 347 833 l 417 764 l 417 694 l 347 694 z "},"Å":{"ha":764,"x_min":0,"x_max":625,"o":"m 69 0 l 0 69 l 0 556 l 69 625 l 556 625 l 625 556 l 625 69 l 556 0 l 486 0 l 486 208 l 417 278 l 208 278 l 139 208 l 139 0 l 69 0 m 139 486 l 139 417 l 208 347 l 417 347 l 486 417 l 486 486 l 139 486 m 208 764 l 278 833 l 347 833 l 417 764 l 417 700 l 354 625 l 278 625 l 208 694 l 208 764 m 278 694 l 347 694 l 347 764 l 278 764 l 278 694 z "},"È":{"ha":764,"x_min":0,"x_max":625,"o":"m 0 556 l 69 625 l 556 625 l 625 556 l 625 486 l 139 486 l 139 426 l 208 347 l 486 347 l 486 278 l 208 278 l 139 208 l 139 139 l 625 139 l 625 69 l 549 0 l 69 0 l 0 69 l 0 556 m 278 694 l 208 764 l 208 833 l 278 833 l 347 764 l 347 694 l 278 694 z "},"É":{"ha":764,"x_min":0,"x_max":625,"o":"m 0 556 l 69 625 l 556 625 l 625 556 l 625 486 l 139 486 l 139 426 l 208 347 l 486 347 l 486 278 l 208 278 l 139 208 l 139 139 l 625 139 l 625 69 l 549 0 l 69 0 l 0 69 l 0 556 m 347 694 l 347 764 l 417 833 l 486 833 l 486 764 l 417 694 l 347 694 z "},"Ê":{"ha":764,"x_min":0,"x_max":625,"o":"m 0 556 l 69 625 l 556 625 l 625 556 l 625 486 l 139 486 l 139 426 l 208 347 l 486 347 l 486 278 l 208 278 l 139 208 l 139 139 l 625 139 l 625 69 l 549 0 l 69 0 l 0 69 l 0 556 m 139 694 l 139 764 l 208 833 l 278 833 l 278 764 l 208 694 l 139 694 m 417 694 l 347 764 l 347 833 l 417 833 l 486 764 l 486 694 l 417 694 z "},"Ë":{"ha":764,"x_min":0,"x_max":625,"o":"m 0 556 l 69 625 l 556 625 l 625 556 l 625 486 l 139 486 l 139 426 l 208 347 l 486 347 l 486 278 l 208 278 l 139 208 l 139 139 l 625 139 l 625 69 l 549 0 l 69 0 l 0 69 l 0 556 m 417 694 l 417 764 l 486 833 l 556 833 l 556 694 l 417 694 m 69 694 l 69 833 l 139 833 l 208 764 l 208 694 l 69 694 z "},"Ì":{"ha":694,"x_min":0,"x_max":556,"o":"m 0 0 l 0 69 l 69 139 l 208 139 l 208 486 l 0 486 l 0 556 l 69 625 l 486 625 l 556 556 l 556 486 l 347 486 l 347 139 l 486 139 l 556 69 l 556 0 l 0 0 m 208 694 l 139 764 l 139 833 l 208 833 l 278 764 l 278 694 l 208 694 z "},"Í":{"ha":694,"x_min":0,"x_max":556,"o":"m 0 0 l 0 69 l 69 139 l 208 139 l 208 486 l 0 486 l 0 556 l 69 625 l 486 625 l 556 556 l 556 486 l 347 486 l 347 139 l 486 139 l 556 69 l 556 0 l 0 0 m 278 694 l 278 764 l 347 833 l 417 833 l 417 764 l 347 694 l 278 694 z "},"Î":{"ha":694,"x_min":0,"x_max":556,"o":"m 0 0 l 0 69 l 69 139 l 208 139 l 208 486 l 0 486 l 0 556 l 69 625 l 486 625 l 556 556 l 556 486 l 347 486 l 347 139 l 486 139 l 556 69 l 556 0 l 0 0 m 69 694 l 69 764 l 139 833 l 208 833 l 208 764 l 139 694 l 69 694 m 417 694 l 347 764 l 347 833 l 417 833 l 486 764 l 486 694 l 417 694 z "},"Ï":{"ha":694,"x_min":0,"x_max":556,"o":"m 0 0 l 0 69 l 69 139 l 208 139 l 208 486 l 0 486 l 0 556 l 69 625 l 486 625 l 556 556 l 556 486 l 347 486 l 347 139 l 486 139 l 556 69 l 556 0 l 0 0 m 417 694 l 417 764 l 486 833 l 556 833 l 556 694 l 417 694 m 69 694 l 69 833 l 139 833 l 208 764 l 208 694 l 69 694 z "},"Ð":{"ha":833,"x_min":0,"x_max":694,"o":"m 0 347 l 347 347 l 347 278 l 0 278 l 0 347 m 139 0 l 69 69 l 69 556 l 139 625 l 556 625 l 694 486 l 694 139 l 556 0 l 139 0 m 208 139 l 486 139 l 556 208 l 556 417 l 486 486 l 208 486 l 208 139 z "},"Ñ":{"ha":764,"x_min":0,"x_max":625,"o":"m 139 0 l 69 0 l 0 69 l 0 556 l 69 625 l 139 625 l 139 556 l 486 208 l 486 625 l 556 625 l 625 556 l 625 69 l 556 0 l 486 0 l 486 69 l 139 417 l 139 0 m 417 694 l 417 764 l 486 833 l 556 833 l 556 764 l 486 694 l 417 694 m 139 694 l 139 764 l 208 833 l 278 833 l 278 764 l 208 694 l 139 694 m 347 694 l 278 764 l 278 833 l 347 833 l 417 764 l 417 694 l 347 694 z "},"Ò":{"ha":764,"x_min":0,"x_max":625,"o":"m 556 0 l 625 69 l 625 556 l 556 625 l 69 625 l 0 556 l 0 69 l 69 0 l 556 0 m 139 486 l 486 486 l 486 139 l 139 139 l 139 486 m 278 694 l 208 764 l 208 833 l 278 833 l 347 764 l 347 694 l 278 694 z "},"Ó":{"ha":764,"x_min":0,"x_max":625,"o":"m 556 0 l 625 69 l 625 556 l 556 625 l 69 625 l 0 556 l 0 69 l 69 0 l 556 0 m 139 486 l 486 486 l 486 139 l 139 139 l 139 486 m 347 694 l 347 764 l 417 833 l 486 833 l 486 764 l 417 694 l 347 694 z "},"Ô":{"ha":764,"x_min":0,"x_max":625,"o":"m 556 0 l 625 69 l 625 556 l 556 625 l 69 625 l 0 556 l 0 69 l 69 0 l 556 0 m 139 486 l 486 486 l 486 139 l 139 139 l 139 486 m 139 694 l 139 764 l 208 833 l 278 833 l 278 764 l 208 694 l 139 694 m 417 694 l 347 764 l 347 833 l 417 833 l 486 764 l 486 694 l 417 694 z "},"Õ":{"ha":764,"x_min":0,"x_max":625,"o":"m 556 0 l 625 69 l 625 556 l 556 625 l 69 625 l 0 556 l 0 69 l 69 0 l 556 0 m 139 486 l 486 486 l 486 139 l 139 139 l 139 486 m 417 694 l 417 764 l 486 833 l 556 833 l 556 764 l 486 694 l 417 694 m 139 694 l 139 764 l 208 833 l 278 833 l 278 764 l 208 694 l 139 694 m 347 694 l 278 764 l 278 833 l 347 833 l 417 764 l 417 694 l 347 694 z "},"Ö":{"ha":764,"x_min":0,"x_max":625,"o":"m 556 0 l 625 69 l 625 556 l 556 625 l 69 625 l 0 556 l 0 69 l 69 0 l 556 0 m 139 486 l 486 486 l 486 139 l 139 139 l 139 486 m 417 694 l 417 764 l 486 833 l 556 833 l 556 694 l 417 694 m 69 694 l 69 833 l 139 833 l 208 764 l 208 694 l 69 694 z "},"Ù":{"ha":764,"x_min":0,"x_max":625,"o":"m 69 625 l 0 556 l 0 69 l 69 0 l 556 0 l 625 69 l 625 556 l 556 625 l 486 625 l 486 139 l 139 139 l 139 625 l 69 625 m 278 694 l 208 764 l 208 833 l 278 833 l 347 764 l 347 694 l 278 694 z "},"Ú":{"ha":764,"x_min":0,"x_max":625,"o":"m 69 625 l 0 556 l 0 69 l 69 0 l 556 0 l 625 69 l 625 556 l 556 625 l 486 625 l 486 139 l 139 139 l 139 625 l 69 625 m 347 694 l 347 764 l 417 833 l 486 833 l 486 764 l 417 694 l 347 694 z "},"Û":{"ha":764,"x_min":0,"x_max":625,"o":"m 69 625 l 0 556 l 0 69 l 69 0 l 556 0 l 625 69 l 625 556 l 556 625 l 486 625 l 486 139 l 139 139 l 139 625 l 69 625 m 139 694 l 139 764 l 208 833 l 278 833 l 278 764 l 208 694 l 139 694 m 417 694 l 347 764 l 347 833 l 417 833 l 486 764 l 486 694 l 417 694 z "},"Ü":{"ha":764,"x_min":0,"x_max":625,"o":"m 69 625 l 0 556 l 0 69 l 69 0 l 556 0 l 625 69 l 625 556 l 556 625 l 486 625 l 486 139 l 139 139 l 139 625 l 69 625 m 417 694 l 417 764 l 486 833 l 556 833 l 556 694 l 417 694 m 69 694 l 69 833 l 139 833 l 208 764 l 208 694 l 69 694 z "},"Ý":{"ha":764,"x_min":0,"x_max":625,"o":"m 0 556 l 69 625 l 139 625 l 139 417 l 208 347 l 417 347 l 486 417 l 486 625 l 556 625 l 625 556 l 625 69 l 556 0 l 69 0 l 0 69 l 0 139 l 486 139 l 486 208 l 417 278 l 69 278 l 0 347 l 0 556 m 347 694 l 347 764 l 417 833 l 486 833 l 486 764 l 417 694 l 347 694 z "},"Ø":{"ha":764,"x_min":0,"x_max":625,"o":"m 69 0 l 0 69 l 0 556 l 69 625 l 556 625 l 625 556 l 625 69 l 556 0 l 69 0 m 139 208 l 417 486 l 139 486 l 139 208 m 486 417 l 208 139 l 486 139 l 486 417 z "},"Þ":{"ha":764,"x_min":0,"x_max":625,"o":"m 0 556 l 69 625 l 139 625 l 139 486 l 556 486 l 625 417 l 625 208 l 556 139 l 139 139 l 139 0 l 69 0 l 0 69 l 0 556 m 139 278 l 486 278 l 486 347 l 139 347 l 139 278 z "},"×":{"ha":625,"x_min":0,"x_max":486,"o":"m 0 486 l 69 556 l 139 556 l 139 417 l 208 347 l 278 347 l 347 417 l 347 556 l 417 556 l 486 486 l 486 417 l 347 347 l 347 278 l 486 208 l 486 139 l 417 69 l 347 69 l 347 208 l 278 278 l 208 278 l 139 208 l 139 69 l 69 69 l 0 139 l 0 208 l 139 278 l 139 347 l 0 417 l 0 486 z "},"ß":{"ha":764,"x_min":0,"x_max":625,"o":"m 0 486 l 139 625 l 486 625 l 625 486 l 625 417 l 556 347 l 556 278 l 625 208 l 625 139 l 486 0 l 208 0 l 208 69 l 278 139 l 486 139 l 486 208 l 417 278 l 208 278 l 139 208 l 139 69 l 69 0 l 0 0 l 0 486 m 139 486 l 139 417 l 208 347 l 417 347 l 486 417 l 486 486 l 139 486 z "},"Ç":{"ha":764,"x_min":0,"x_max":625,"o":"m 0 556 l 69 625 l 556 625 l 625 556 l 625 486 l 139 486 l 139 139 l 625 139 l 625 69 l 549 0 l 69 0 l 0 69 l 0 556 m 139 -208 l 139 -139 l 208 -69 l 278 -69 l 278 0 l 417 0 l 417 -69 l 278 -208 l 139 -208 z "},"Æ":{"ha":972,"x_min":0,"x_max":833,"o":"m 69 0 l 0 69 l 0 556 l 69 625 l 417 625 l 486 556 l 486 69 l 417 0 l 347 0 l 347 208 l 278 278 l 208 278 l 139 208 l 139 0 l 69 0 m 139 486 l 139 417 l 208 347 l 278 347 l 347 417 l 347 486 l 139 486 m 347 556 l 417 625 l 764 625 l 833 556 l 833 486 l 486 486 l 486 417 l 556 347 l 694 347 l 694 278 l 556 278 l 486 208 l 486 139 l 833 139 l 833 69 l 764 0 l 417 0 l 347 69 l 347 556 z "},"÷":{"ha":694,"x_min":0,"x_max":556,"o":"m 208 417 l 208 486 l 278 556 l 347 556 l 347 417 l 208 417 m 0 278 l 0 208 l 556 208 l 556 278 l 486 347 l 69 347 l 0 278 m 347 139 l 347 0 l 278 0 l 208 69 l 208 139 l 347 139 z "},"à":{"ha":764,"x_min":0,"x_max":625,"o":"m 69 0 l 0 69 l 0 556 l 69 625 l 556 625 l 625 556 l 625 69 l 556 0 l 486 0 l 486 208 l 417 278 l 208 278 l 139 208 l 139 0 l 69 0 m 139 486 l 139 417 l 208 347 l 417 347 l 486 417 l 486 486 l 139 486 m 278 694 l 208 764 l 208 833 l 278 833 l 347 764 l 347 694 l 278 694 z "},"á":{"ha":764,"x_min":0,"x_max":625,"o":"m 69 0 l 0 69 l 0 556 l 69 625 l 556 625 l 625 556 l 625 69 l 556 0 l 486 0 l 486 208 l 417 278 l 208 278 l 139 208 l 139 0 l 69 0 m 139 486 l 139 417 l 208 347 l 417 347 l 486 417 l 486 486 l 139 486 m 347 694 l 347 764 l 417 833 l 486 833 l 486 764 l 417 694 l 347 694 z "},"â":{"ha":764,"x_min":0,"x_max":625,"o":"m 69 0 l 0 69 l 0 556 l 69 625 l 556 625 l 625 556 l 625 69 l 556 0 l 486 0 l 486 208 l 417 278 l 208 278 l 139 208 l 139 0 l 69 0 m 139 486 l 139 417 l 208 347 l 417 347 l 486 417 l 486 486 l 139 486 m 139 694 l 139 764 l 208 833 l 278 833 l 278 764 l 208 694 l 139 694 m 417 694 l 347 764 l 347 833 l 417 833 l 486 764 l 486 694 l 417 694 z "},"ã":{"ha":764,"x_min":0,"x_max":625,"o":"m 417 694 l 417 764 l 486 833 l 556 833 l 556 764 l 486 694 l 417 694 m 69 0 l 0 69 l 0 556 l 69 625 l 556 625 l 625 556 l 625 69 l 556 0 l 486 0 l 486 208 l 417 278 l 208 278 l 139 208 l 139 0 l 69 0 m 139 486 l 139 417 l 208 347 l 417 347 l 486 417 l 486 486 l 139 486 m 139 694 l 139 764 l 208 833 l 278 833 l 278 764 l 208 694 l 139 694 m 347 694 l 278 764 l 278 833 l 347 833 l 417 764 l 417 694 l 347 694 z "},"ä":{"ha":764,"x_min":0,"x_max":625,"o":"m 417 694 l 417 764 l 486 833 l 556 833 l 556 694 l 417 694 m 69 0 l 0 69 l 0 556 l 69 625 l 556 625 l 625 556 l 625 69 l 556 0 l 486 0 l 486 208 l 417 278 l 208 278 l 139 208 l 139 0 l 69 0 m 139 486 l 139 417 l 208 347 l 417 347 l 486 417 l 486 486 l 139 486 m 69 694 l 69 833 l 139 833 l 208 764 l 208 694 l 69 694 z "},"å":{"ha":764,"x_min":0,"x_max":625,"o":"m 69 0 l 0 69 l 0 556 l 69 625 l 556 625 l 625 556 l 625 69 l 556 0 l 486 0 l 486 208 l 417 278 l 208 278 l 139 208 l 139 0 l 69 0 m 139 486 l 139 417 l 208 347 l 417 347 l 486 417 l 486 486 l 139 486 m 208 764 l 278 833 l 347 833 l 417 764 l 417 700 l 354 625 l 278 625 l 208 694 l 208 764 m 278 694 l 347 694 l 347 764 l 278 764 l 278 694 z "},"æ":{"ha":972,"x_min":0,"x_max":833,"o":"m 69 0 l 0 69 l 0 556 l 69 625 l 417 625 l 486 556 l 486 69 l 417 0 l 347 0 l 347 208 l 278 278 l 208 278 l 139 208 l 139 0 l 69 0 m 139 486 l 139 417 l 208 347 l 278 347 l 347 417 l 347 486 l 139 486 m 347 556 l 417 625 l 764 625 l 833 556 l 833 486 l 486 486 l 486 417 l 556 347 l 694 347 l 694 278 l 556 278 l 486 208 l 486 139 l 833 139 l 833 69 l 764 0 l 417 0 l 347 69 l 347 556 z "},"ç":{"ha":764,"x_min":0,"x_max":625,"o":"m 0 556 l 69 625 l 556 625 l 625 556 l 625 486 l 139 486 l 139 139 l 625 139 l 625 69 l 549 0 l 69 0 l 0 69 l 0 556 m 139 -208 l 139 -139 l 208 -69 l 278 -69 l 278 0 l 417 0 l 417 -69 l 278 -208 l 139 -208 z "},"è":{"ha":764,"x_min":0,"x_max":625,"o":"m 0 556 l 69 625 l 556 625 l 625 556 l 625 486 l 139 486 l 139 426 l 208 347 l 486 347 l 486 278 l 208 278 l 139 208 l 139 139 l 625 139 l 625 69 l 549 0 l 69 0 l 0 69 l 0 556 m 278 694 l 208 764 l 208 833 l 278 833 l 347 764 l 347 694 l 278 694 z "},"é":{"ha":764,"x_min":0,"x_max":625,"o":"m 0 556 l 69 625 l 556 625 l 625 556 l 625 486 l 139 486 l 139 426 l 208 347 l 486 347 l 486 278 l 208 278 l 139 208 l 139 139 l 625 139 l 625 69 l 549 0 l 69 0 l 0 69 l 0 556 m 347 694 l 347 764 l 417 833 l 486 833 l 486 764 l 417 694 l 347 694 z "},"ê":{"ha":764,"x_min":0,"x_max":625,"o":"m 0 556 l 69 625 l 556 625 l 625 556 l 625 486 l 139 486 l 139 426 l 208 347 l 486 347 l 486 278 l 208 278 l 139 208 l 139 139 l 625 139 l 625 69 l 549 0 l 69 0 l 0 69 l 0 556 m 139 694 l 139 764 l 208 833 l 278 833 l 278 764 l 208 694 l 139 694 m 417 694 l 347 764 l 347 833 l 417 833 l 486 764 l 486 694 l 417 694 z "},"ë":{"ha":764,"x_min":0,"x_max":625,"o":"m 0 556 l 69 625 l 556 625 l 625 556 l 625 486 l 139 486 l 139 426 l 208 347 l 486 347 l 486 278 l 208 278 l 139 208 l 139 139 l 625 139 l 625 69 l 549 0 l 69 0 l 0 69 l 0 556 m 417 694 l 417 764 l 486 833 l 556 833 l 556 694 l 417 694 m 69 694 l 69 833 l 139 833 l 208 764 l 208 694 l 69 694 z "},"ì":{"ha":694,"x_min":0,"x_max":556,"o":"m 0 0 l 0 69 l 69 139 l 208 139 l 208 486 l 0 486 l 0 556 l 69 625 l 486 625 l 556 556 l 556 486 l 347 486 l 347 139 l 486 139 l 556 69 l 556 0 l 0 0 m 208 694 l 139 764 l 139 833 l 208 833 l 278 764 l 278 694 l 208 694 z "},"í":{"ha":694,"x_min":0,"x_max":556,"o":"m 0 0 l 0 69 l 69 139 l 208 139 l 208 486 l 0 486 l 0 556 l 69 625 l 486 625 l 556 556 l 556 486 l 347 486 l 347 139 l 486 139 l 556 69 l 556 0 l 0 0 m 278 694 l 278 764 l 347 833 l 417 833 l 417 764 l 347 694 l 278 694 z "},"î":{"ha":694,"x_min":0,"x_max":556,"o":"m 0 0 l 0 69 l 69 139 l 208 139 l 208 486 l 0 486 l 0 556 l 69 625 l 486 625 l 556 556 l 556 486 l 347 486 l 347 139 l 486 139 l 556 69 l 556 0 l 0 0 m 69 694 l 69 764 l 139 833 l 208 833 l 208 764 l 139 694 l 69 694 m 417 694 l 347 764 l 347 833 l 417 833 l 486 764 l 486 694 l 417 694 z "},"ï":{"ha":694,"x_min":0,"x_max":556,"o":"m 0 0 l 0 69 l 69 139 l 208 139 l 208 486 l 0 486 l 0 556 l 69 625 l 486 625 l 556 556 l 556 486 l 347 486 l 347 139 l 486 139 l 556 69 l 556 0 l 0 0 m 417 694 l 417 764 l 486 833 l 556 833 l 556 694 l 417 694 m 69 694 l 69 833 l 139 833 l 208 764 l 208 694 l 69 694 z "},"ð":{"ha":833,"x_min":0,"x_max":694,"o":"m 0 347 l 347 347 l 347 278 l 0 278 l 0 347 m 139 0 l 69 69 l 69 556 l 139 625 l 556 625 l 694 486 l 694 139 l 556 0 l 139 0 m 208 139 l 486 139 l 556 208 l 556 417 l 486 486 l 208 486 l 208 139 z "},"ñ":{"ha":764,"x_min":0,"x_max":625,"o":"m 139 0 l 69 0 l 0 69 l 0 556 l 69 625 l 139 625 l 139 556 l 486 208 l 486 625 l 556 625 l 625 556 l 625 69 l 556 0 l 486 0 l 486 69 l 139 417 l 139 0 m 417 694 l 417 764 l 486 833 l 556 833 l 556 764 l 486 694 l 417 694 m 139 694 l 139 764 l 208 833 l 278 833 l 278 764 l 208 694 l 139 694 m 347 694 l 278 764 l 278 833 l 347 833 l 417 764 l 417 694 l 347 694 z "},"ò":{"ha":764,"x_min":0,"x_max":625,"o":"m 556 0 l 625 69 l 625 556 l 556 625 l 69 625 l 0 556 l 0 69 l 69 0 l 556 0 m 139 486 l 486 486 l 486 139 l 139 139 l 139 486 m 278 694 l 208 764 l 208 833 l 278 833 l 347 764 l 347 694 l 278 694 z "},"ó":{"ha":764,"x_min":0,"x_max":625,"o":"m 556 0 l 625 69 l 625 556 l 556 625 l 69 625 l 0 556 l 0 69 l 69 0 l 556 0 m 139 486 l 486 486 l 486 139 l 139 139 l 139 486 m 347 694 l 347 764 l 417 833 l 486 833 l 486 764 l 417 694 l 347 694 z "},"ô":{"ha":764,"x_min":0,"x_max":625,"o":"m 556 0 l 625 69 l 625 556 l 556 625 l 69 625 l 0 556 l 0 69 l 69 0 l 556 0 m 139 486 l 486 486 l 486 139 l 139 139 l 139 486 m 139 694 l 139 764 l 208 833 l 278 833 l 278 764 l 208 694 l 139 694 m 417 694 l 347 764 l 347 833 l 417 833 l 486 764 l 486 694 l 417 694 z "},"õ":{"ha":764,"x_min":0,"x_max":625,"o":"m 556 0 l 625 69 l 625 556 l 556 625 l 69 625 l 0 556 l 0 69 l 69 0 l 556 0 m 139 486 l 486 486 l 486 139 l 139 139 l 139 486 m 417 694 l 417 764 l 486 833 l 556 833 l 556 764 l 486 694 l 417 694 m 139 694 l 139 764 l 208 833 l 278 833 l 278 764 l 208 694 l 139 694 m 347 694 l 278 764 l 278 833 l 347 833 l 417 764 l 417 694 l 347 694 z "},"ö":{"ha":764,"x_min":0,"x_max":625,"o":"m 556 0 l 625 69 l 625 556 l 556 625 l 69 625 l 0 556 l 0 69 l 69 0 l 556 0 m 139 486 l 486 486 l 486 139 l 139 139 l 139 486 m 417 694 l 417 764 l 486 833 l 556 833 l 556 694 l 417 694 m 69 694 l 69 833 l 139 833 l 208 764 l 208 694 l 69 694 z "},"ø":{"ha":764,"x_min":0,"x_max":625,"o":"m 69 0 l 0 69 l 0 556 l 69 625 l 556 625 l 625 556 l 625 69 l 556 0 l 69 0 m 139 208 l 417 486 l 139 486 l 139 208 m 486 417 l 208 139 l 486 139 l 486 417 z "},"ù":{"ha":764,"x_min":0,"x_max":625,"o":"m 69 625 l 0 556 l 0 69 l 69 0 l 556 0 l 625 69 l 625 556 l 556 625 l 486 625 l 486 139 l 139 139 l 139 625 l 69 625 m 278 694 l 208 764 l 208 833 l 278 833 l 347 764 l 347 694 l 278 694 z "},"ú":{"ha":764,"x_min":0,"x_max":625,"o":"m 69 625 l 0 556 l 0 69 l 69 0 l 556 0 l 625 69 l 625 556 l 556 625 l 486 625 l 486 139 l 139 139 l 139 625 l 69 625 m 347 694 l 347 764 l 417 833 l 486 833 l 486 764 l 417 694 l 347 694 z "},"û":{"ha":764,"x_min":0,"x_max":625,"o":"m 69 625 l 0 556 l 0 69 l 69 0 l 556 0 l 625 69 l 625 556 l 556 625 l 486 625 l 486 139 l 139 139 l 139 625 l 69 625 m 139 694 l 139 764 l 208 833 l 278 833 l 278 764 l 208 694 l 139 694 m 417 694 l 347 764 l 347 833 l 417 833 l 486 764 l 486 694 l 417 694 z "},"ü":{"ha":764,"x_min":0,"x_max":625,"o":"m 69 625 l 0 556 l 0 69 l 69 0 l 556 0 l 625 69 l 625 556 l 556 625 l 486 625 l 486 139 l 139 139 l 139 625 l 69 625 m 417 694 l 417 764 l 486 833 l 556 833 l 556 694 l 417 694 m 69 694 l 69 833 l 139 833 l 208 764 l 208 694 l 69 694 z "},"þ":{"ha":764,"x_min":0,"x_max":625,"o":"m 0 556 l 69 625 l 139 625 l 139 486 l 556 486 l 625 417 l 625 208 l 556 139 l 139 139 l 139 0 l 69 0 l 0 69 l 0 556 m 139 278 l 486 278 l 486 347 l 139 347 l 139 278 z "},"ý":{"ha":764,"x_min":0,"x_max":625,"o":"m 0 556 l 69 625 l 139 625 l 139 417 l 208 347 l 417 347 l 486 417 l 486 625 l 556 625 l 625 556 l 625 69 l 556 0 l 69 0 l 0 69 l 0 139 l 486 139 l 486 208 l 417 278 l 69 278 l 0 347 l 0 556 m 347 694 l 347 764 l 417 833 l 486 833 l 486 764 l 417 694 l 347 694 z "},"ÿ":{"ha":764,"x_min":0,"x_max":625,"o":"m 0 556 l 69 625 l 139 625 l 139 417 l 208 347 l 417 347 l 486 417 l 486 625 l 556 625 l 625 556 l 625 69 l 556 0 l 69 0 l 0 69 l 0 139 l 486 139 l 486 208 l 417 278 l 69 278 l 0 347 l 0 556 m 417 694 l 417 764 l 486 833 l 556 833 l 556 694 l 417 694 m 69 694 l 69 833 l 139 833 l 208 764 l 208 694 l 69 694 z "},"Ÿ":{"ha":764,"x_min":0,"x_max":625,"o":"m 0 556 l 69 625 l 139 625 l 139 417 l 208 347 l 417 347 l 486 417 l 486 625 l 556 625 l 625 556 l 625 69 l 556 0 l 69 0 l 0 69 l 0 139 l 486 139 l 486 208 l 417 278 l 69 278 l 0 347 l 0 556 m 417 694 l 417 764 l 486 833 l 556 833 l 556 694 l 417 694 m 69 694 l 69 833 l 139 833 l 208 764 l 208 694 l 69 694 z "},"¢":{"ha":764,"x_min":0,"x_max":625,"o":"m 0 556 l 69 625 l 556 625 l 625 556 l 625 486 l 139 486 l 139 139 l 625 139 l 625 69 l 549 0 l 69 0 l 0 69 l 0 556 m 278 694 l 347 694 l 347 -69 l 278 -69 l 278 694 z "},"¡":{"ha":278,"x_min":0,"x_max":139,"o":"m 0 69 l 0 417 l 69 417 l 139 347 l 139 0 l 69 0 l 0 69 m 0 556 l 0 625 l 139 625 l 139 486 l 69 486 l 0 556 z "},"¿":{"ha":764,"x_min":0,"x_max":625,"o":"m 625 69 l 549 0 l 69 0 l 0 69 l 0 278 l 69 347 l 208 347 l 278 417 l 347 417 l 417 486 l 417 347 l 347 278 l 208 278 l 139 208 l 139 139 l 625 139 l 625 69 m 417 556 l 347 486 l 278 486 l 278 625 l 417 625 l 417 556 z "},"a":{"ha":764,"x_min":0,"x_max":625,"o":"m 69 0 l 0 69 l 0 556 l 69 625 l 556 625 l 625 556 l 625 69 l 556 0 l 486 0 l 486 208 l 417 278 l 208 278 l 139 208 l 139 0 l 69 0 m 139 486 l 139 417 l 208 347 l 417 347 l 486 417 l 486 486 l 139 486 z "},"b":{"ha":764,"x_min":0,"x_max":625,"o":"m 69 0 l 0 69 l 0 556 l 69 625 l 486 625 l 625 486 l 625 417 l 556 347 l 556 278 l 625 208 l 625 139 l 486 0 l 69 0 m 139 139 l 486 139 l 486 208 l 417 278 l 208 278 l 139 208 l 139 139 m 139 486 l 139 417 l 208 347 l 417 347 l 486 417 l 486 486 l 139 486 z "},"c":{"ha":764,"x_min":0,"x_max":625,"o":"m 0 556 l 69 625 l 556 625 l 625 556 l 625 486 l 139 486 l 139 139 l 625 139 l 625 69 l 549 0 l 69 0 l 0 69 l 0 556 z "},"d":{"ha":764,"x_min":0,"x_max":625,"o":"m 69 0 l 0 69 l 0 556 l 69 625 l 486 625 l 625 486 l 625 139 l 486 0 l 69 0 m 139 139 l 417 139 l 486 208 l 486 417 l 417 486 l 139 486 l 139 139 z "},"e":{"ha":764,"x_min":0,"x_max":625,"o":"m 0 556 l 69 625 l 556 625 l 625 556 l 625 486 l 139 486 l 139 426 l 208 347 l 486 347 l 486 278 l 208 278 l 139 208 l 139 139 l 625 139 l 625 69 l 549 0 l 69 0 l 0 69 l 0 556 z "},"f":{"ha":764,"x_min":0,"x_max":625,"o":"m 0 556 l 69 625 l 556 625 l 625 556 l 625 486 l 139 486 l 139 426 l 208 347 l 486 347 l 486 278 l 208 278 l 139 208 l 139 0 l 69 0 l 0 69 l 0 556 z "},"g":{"ha":764,"x_min":0,"x_max":625,"o":"m 0 556 l 69 625 l 556 625 l 625 556 l 625 486 l 139 486 l 139 139 l 486 139 l 486 208 l 417 278 l 278 278 l 278 347 l 556 347 l 625 278 l 625 69 l 549 0 l 69 0 l 0 69 l 0 556 z "},"h":{"ha":764,"x_min":0,"x_max":625,"o":"m 139 625 l 139 417 l 208 347 l 417 347 l 486 411 l 486 625 l 556 625 l 625 556 l 625 69 l 556 0 l 486 0 l 486 208 l 417 278 l 208 278 l 139 208 l 139 0 l 69 0 l 0 69 l 0 556 l 69 625 l 139 625 z "},"i":{"ha":694,"x_min":0,"x_max":556,"o":"m 0 0 l 0 69 l 69 139 l 208 139 l 208 486 l 0 486 l 0 556 l 69 625 l 486 625 l 556 556 l 556 486 l 347 486 l 347 139 l 486 139 l 556 69 l 556 0 l 0 0 z "},"j":{"ha":764,"x_min":0,"x_max":625,"o":"m 0 208 l 69 278 l 139 278 l 139 139 l 486 139 l 486 486 l 0 486 l 0 556 l 69 625 l 556 625 l 625 556 l 625 69 l 556 0 l 69 0 l 0 69 l 0 208 z "},"k":{"ha":764,"x_min":0,"x_max":625,"o":"m 0 556 l 69 625 l 139 625 l 139 417 l 208 347 l 347 347 l 486 486 l 486 625 l 556 625 l 625 556 l 625 486 l 486 347 l 486 278 l 625 139 l 625 69 l 556 0 l 486 0 l 486 139 l 347 278 l 208 278 l 139 208 l 139 0 l 69 0 l 0 69 l 0 556 z "},"l":{"ha":764,"x_min":0,"x_max":625,"o":"m 69 625 l 139 625 l 139 139 l 625 139 l 625 69 l 556 0 l 69 0 l 0 69 l 0 556 l 69 625 z "},"m":{"ha":764,"x_min":0,"x_max":625,"o":"m 69 0 l 0 69 l 0 556 l 69 625 l 139 625 l 139 556 l 278 417 l 347 417 l 486 556 l 486 625 l 556 625 l 625 556 l 625 69 l 556 0 l 486 0 l 486 417 l 347 278 l 278 278 l 139 417 l 139 0 l 69 0 z "},"n":{"ha":764,"x_min":0,"x_max":625,"o":"m 139 0 l 69 0 l 0 69 l 0 556 l 69 625 l 139 625 l 139 556 l 486 208 l 486 625 l 556 625 l 625 556 l 625 69 l 556 0 l 486 0 l 486 69 l 139 417 l 139 0 z "},"o":{"ha":764,"x_min":0,"x_max":625,"o":"m 69 0 l 0 69 l 0 556 l 69 625 l 556 625 l 625 556 l 625 69 l 556 0 l 69 0 m 139 139 l 486 139 l 486 486 l 139 486 l 139 139 z "},"p":{"ha":764,"x_min":0,"x_max":625,"o":"m 69 0 l 0 69 l 0 556 l 69 625 l 556 625 l 625 556 l 625 347 l 556 278 l 208 278 l 139 208 l 139 0 l 69 0 m 139 486 l 139 417 l 208 347 l 417 347 l 486 417 l 486 486 l 139 486 z "},"q":{"ha":764,"x_min":0,"x_max":625,"o":"m 69 0 l 0 69 l 0 556 l 69 625 l 556 625 l 625 556 l 625 69 l 556 0 l 69 0 m 139 139 l 417 139 l 417 278 l 486 347 l 486 486 l 139 486 l 139 139 z "},"r":{"ha":764,"x_min":0,"x_max":625,"o":"m 139 278 l 139 0 l 69 0 l 0 69 l 0 556 l 69 625 l 556 625 l 625 556 l 625 347 l 556 278 l 486 278 l 625 139 l 625 0 l 561 0 l 486 69 l 486 139 l 347 278 l 139 278 m 139 486 l 139 417 l 208 347 l 417 347 l 486 417 l 486 486 l 139 486 z "},"s":{"ha":764,"x_min":0,"x_max":625,"o":"m 625 486 l 139 486 l 139 417 l 208 347 l 556 347 l 625 278 l 625 69 l 556 0 l 0 0 l 0 69 l 69 139 l 486 139 l 486 208 l 417 278 l 69 278 l 0 347 l 0 556 l 69 625 l 549 625 l 625 556 l 625 486 z "},"t":{"ha":694,"x_min":0,"x_max":556,"o":"m 0 556 l 69 625 l 486 625 l 556 556 l 556 486 l 347 486 l 347 0 l 278 0 l 208 69 l 208 486 l 0 486 l 0 556 z "},"u":{"ha":764,"x_min":0,"x_max":625,"o":"m 139 625 l 139 139 l 486 139 l 486 625 l 556 625 l 625 556 l 625 69 l 556 0 l 69 0 l 0 69 l 0 556 l 69 625 l 139 625 z "},"v":{"ha":764,"x_min":0,"x_max":625,"o":"m 0 556 l 69 625 l 139 625 l 139 347 l 278 139 l 347 139 l 486 347 l 486 625 l 556 625 l 625 556 l 625 278 l 417 0 l 208 0 l 0 278 l 0 556 z "},"w":{"ha":764,"x_min":0,"x_max":625,"o":"m 417 0 l 347 69 l 278 69 l 208 0 l 69 0 l 0 69 l 0 556 l 69 625 l 139 625 l 139 139 l 199 139 l 278 208 l 278 417 l 347 417 l 347 208 l 417 139 l 486 139 l 486 625 l 556 625 l 625 549 l 625 69 l 556 0 l 417 0 z "},"x":{"ha":764,"x_min":0,"x_max":625,"o":"m 0 556 l 69 625 l 139 625 l 139 486 l 278 347 l 347 347 l 486 486 l 486 625 l 556 625 l 625 556 l 625 486 l 486 347 l 486 278 l 625 139 l 625 69 l 556 0 l 486 0 l 486 139 l 347 278 l 278 278 l 139 139 l 139 0 l 69 0 l 0 69 l 0 139 l 139 278 l 139 347 l 0 486 l 0 556 z "},"y":{"ha":764,"x_min":0,"x_max":625,"o":"m 0 556 l 69 625 l 139 625 l 139 417 l 208 347 l 417 347 l 486 417 l 486 625 l 556 625 l 625 556 l 625 69 l 556 0 l 69 0 l 0 69 l 0 139 l 486 139 l 486 208 l 417 278 l 69 278 l 0 347 l 0 556 z "},"z":{"ha":764,"x_min":0,"x_max":625,"o":"m 556 139 l 625 69 l 625 0 l 69 0 l 0 69 l 347 417 l 347 486 l 0 486 l 0 556 l 69 625 l 556 625 l 625 556 l 278 208 l 278 139 l 556 139 z "},"µ":{"ha":764,"x_min":0,"x_max":625,"o":"m 69 0 l 0 69 l 0 556 l 69 625 l 139 625 l 139 347 l 278 208 l 347 208 l 486 347 l 486 625 l 556 625 l 625 556 l 625 69 l 556 0 l 486 0 l 486 208 l 347 69 l 278 69 l 139 208 l 139 0 l 69 0 z "},"μ":{"ha":764,"x_min":0,"x_max":625,"o":"m 69 0 l 0 69 l 0 556 l 69 625 l 139 625 l 139 347 l 278 208 l 347 208 l 486 347 l 486 625 l 556 625 l 625 556 l 625 69 l 556 0 l 486 0 l 486 208 l 347 69 l 278 69 l 139 208 l 139 0 l 69 0 z "},"´":{"ha":347,"x_min":0,"x_max":208,"o":"m 139 625 l 208 556 l 208 486 l 69 347 l 0 417 l 0 486 l 139 625 z "},"¶":{"ha":764,"x_min":0,"x_max":625,"o":"m 278 0 l 208 0 l 139 69 l 139 486 l 0 486 l 0 556 l 69 625 l 556 625 l 625 556 l 625 486 l 486 486 l 486 69 l 417 0 l 347 0 l 347 486 l 278 486 l 278 0 z "},"°":{"ha":556,"x_min":0,"x_max":417,"o":"m 0 486 l 139 625 l 278 625 l 417 486 l 417 347 l 278 208 l 139 208 l 0 347 l 0 486 m 139 347 l 278 347 l 278 486 l 139 486 l 139 347 z "},"±":{"ha":556,"x_min":0,"x_max":417,"o":"m 0 347 l 0 417 l 69 486 l 139 486 l 139 556 l 208 625 l 278 625 l 278 486 l 347 486 l 417 417 l 417 347 l 278 347 l 278 208 l 208 208 l 139 278 l 139 347 l 0 347 m 69 0 l 347 0 l 417 69 l 417 139 l 0 139 l 0 69 l 69 0 z "},"Œ":{"ha":972,"x_min":0,"x_max":833,"o":"m 69 0 l 0 69 l 0 556 l 69 625 l 417 625 l 486 556 l 486 69 l 417 0 l 69 0 m 139 139 l 347 139 l 347 486 l 139 486 l 139 139 m 347 556 l 417 625 l 764 625 l 833 556 l 833 486 l 486 486 l 486 426 l 556 347 l 694 347 l 694 278 l 556 278 l 486 208 l 486 139 l 833 139 l 833 69 l 764 0 l 417 0 l 347 69 l 347 556 z "},"œ":{"ha":972,"x_min":0,"x_max":833,"o":"m 69 0 l 0 69 l 0 556 l 69 625 l 417 625 l 486 556 l 486 69 l 417 0 l 69 0 m 139 139 l 347 139 l 347 486 l 139 486 l 139 139 m 347 556 l 417 625 l 764 625 l 833 556 l 833 486 l 486 486 l 486 426 l 556 347 l 694 347 l 694 278 l 556 278 l 486 208 l 486 139 l 833 139 l 833 69 l 764 0 l 417 0 l 347 69 l 347 556 z "},"š":{"ha":764,"x_min":0,"x_max":625,"o":"m 625 486 l 139 486 l 139 417 l 208 347 l 556 347 l 625 278 l 625 69 l 556 0 l 0 0 l 0 69 l 69 139 l 486 139 l 486 208 l 417 278 l 69 278 l 0 347 l 0 556 l 69 625 l 549 625 l 625 556 l 625 486 m 208 833 l 278 764 l 278 694 l 208 694 l 139 764 l 139 833 l 208 833 m 486 833 l 486 764 l 417 694 l 347 694 l 347 764 l 417 833 l 486 833 z "},"Š":{"ha":764,"x_min":0,"x_max":625,"o":"m 625 486 l 139 486 l 139 417 l 208 347 l 556 347 l 625 278 l 625 69 l 556 0 l 0 0 l 0 69 l 69 139 l 486 139 l 486 208 l 417 278 l 69 278 l 0 347 l 0 556 l 69 625 l 549 625 l 625 556 l 625 486 m 208 833 l 278 764 l 278 694 l 208 694 l 139 764 l 139 833 l 208 833 m 486 833 l 486 764 l 417 694 l 347 694 l 347 764 l 417 833 l 486 833 z "},"‡":{"ha":556,"x_min":0,"x_max":417,"o":"m 278 486 l 347 486 l 417 417 l 417 347 l 278 347 l 278 278 l 417 278 l 417 208 l 347 139 l 278 139 l 278 0 l 208 0 l 139 69 l 139 139 l 69 139 l 0 208 l 0 278 l 139 278 l 139 347 l 0 347 l 0 417 l 69 486 l 139 486 l 139 556 l 208 625 l 278 625 l 278 486 z "},"†":{"ha":556,"x_min":0,"x_max":417,"o":"m 278 486 l 347 486 l 417 417 l 417 347 l 278 347 l 278 0 l 208 0 l 139 69 l 139 139 l 139 347 l 0 347 l 0 417 l 69 486 l 139 486 l 139 556 l 208 625 l 278 625 l 278 486 z "},"ˆ":{"ha":417,"x_min":0,"x_max":278,"o":"m 0 694 l 0 764 l 69 833 l 139 833 l 139 764 l 69 694 l 0 694 m 208 694 l 139 764 l 139 833 l 208 833 l 278 764 l 278 694 l 208 694 z "},"…":{"ha":694,"x_min":0,"x_max":556,"o":"m 0 0 l 0 69 l 69 139 l 139 139 l 139 0 l 0 0 m 208 0 l 208 69 l 278 139 l 347 139 l 347 0 l 208 0 m 417 0 l 417 69 l 486 139 l 556 139 l 556 0 l 417 0 z "},"„":{"ha":486,"x_min":0,"x_max":347,"o":"m 208 139 l 278 139 l 347 69 l 347 0 l 347 -139 l 278 -139 l 278 0 l 208 0 l 208 139 m 0 139 l 69 139 l 139 69 l 139 0 l 139 -139 l 69 -139 l 69 0 l 0 0 l 0 139 z "},"”":{"ha":486,"x_min":0,"x_max":347,"o":"m 208 625 l 278 625 l 347 556 l 347 486 l 347 347 l 278 347 l 278 486 l 208 486 l 208 625 m 0 625 l 69 625 l 139 556 l 139 486 l 139 347 l 69 347 l 69 486 l 0 486 l 0 625 z "},"“":{"ha":486,"x_min":0,"x_max":347,"o":"m 208 625 l 278 625 l 278 764 l 347 764 l 347 625 l 347 556 l 278 486 l 208 486 l 208 625 m 0 625 l 69 625 l 69 764 l 139 764 l 139 625 l 139 556 l 69 486 l 0 486 l 0 625 z "},"’":{"ha":278,"x_min":0,"x_max":139,"o":"m 0 625 l 69 625 l 139 556 l 139 486 l 139 347 l 69 347 l 69 486 l 0 486 l 0 625 z "},"‘":{"ha":278,"x_min":0,"x_max":139,"o":"m 0 625 l 69 625 l 69 764 l 139 764 l 139 625 l 139 556 l 69 486 l 0 486 l 0 625 z "},"•":{"ha":556,"x_min":0,"x_max":417,"o":"m 0 347 l 139 486 l 278 486 l 417 347 l 417 208 l 278 69 l 139 69 l 0 208 l 0 347 z "},"−":{"ha":764,"x_min":0,"x_max":625,"o":"m 69 347 l 556 347 l 625 278 l 625 208 l 0 208 l 0 278 l 69 347 z "},"—":{"ha":833,"x_min":0,"x_max":694,"o":"m 69 347 l 625 347 l 694 278 l 694 208 l 0 208 l 0 278 l 69 347 z "},"–":{"ha":694,"x_min":0,"x_max":556,"o":"m 69 347 l 486 347 l 556 278 l 556 208 l 0 208 l 0 278 l 69 347 z "},"¦":{"ha":278,"x_min":0,"x_max":139,"o":"m 69 278 l 139 278 l 139 0 l 69 0 l 0 69 l 0 208 l 69 278 m 69 625 l 139 625 l 139 347 l 69 347 l 0 417 l 0 556 l 69 625 z "},"‹":{"ha":486,"x_min":0,"x_max":347,"o":"m 0 347 l 208 556 l 278 556 l 347 486 l 347 417 l 208 417 l 139 347 l 139 278 l 208 208 l 347 208 l 347 139 l 278 69 l 208 69 l 0 278 l 0 347 z "},"›":{"ha":486,"x_min":0,"x_max":347,"o":"m 347 278 l 139 69 l 69 69 l 0 139 l 0 208 l 139 208 l 208 278 l 208 347 l 139 417 l 0 417 l 0 486 l 69 556 l 139 556 l 347 347 l 347 278 z "},"«":{"ha":833,"x_min":0,"x_max":694,"o":"m 347 347 l 556 556 l 625 556 l 694 486 l 694 417 l 556 417 l 486 347 l 486 278 l 556 208 l 694 208 l 694 139 l 625 69 l 556 69 l 347 278 l 347 347 m 0 347 l 208 556 l 278 556 l 347 486 l 347 417 l 208 417 l 139 347 l 139 278 l 208 208 l 347 208 l 347 139 l 278 69 l 208 69 l 0 278 l 0 347 z "},"»":{"ha":833,"x_min":0,"x_max":694,"o":"m 347 278 l 139 69 l 69 69 l 0 139 l 0 208 l 139 208 l 208 278 l 208 347 l 139 417 l 0 417 l 0 486 l 69 556 l 139 556 l 347 347 l 347 278 m 694 278 l 486 69 l 417 69 l 347 139 l 347 208 l 486 208 l 556 278 l 556 347 l 486 417 l 347 417 l 347 486 l 417 556 l 486 556 l 694 347 l 694 278 z "},"¬":{"ha":764,"x_min":0,"x_max":625,"o":"m 0 556 l 69 625 l 556 625 l 625 556 l 625 417 l 556 347 l 486 347 l 486 486 l 0 486 l 0 556 z "},"‰":{"ha":1042,"x_min":0,"x_max":903,"o":"m 694 208 l 764 278 l 833 278 l 903 208 l 903 75 l 840 0 l 764 0 l 694 69 l 694 208 m 764 69 l 833 69 l 833 208 l 764 208 l 764 69 m 417 208 l 486 278 l 556 278 l 625 208 l 625 75 l 563 0 l 486 0 l 417 69 l 417 208 m 486 69 l 556 69 l 556 208 l 486 208 l 486 69 m 69 0 l 0 69 l 556 625 l 625 556 l 69 0 m 0 556 l 69 625 l 139 625 l 208 556 l 208 417 l 139 347 l 63 347 l 0 417 l 0 556 m 69 417 l 139 417 l 139 556 l 69 556 l 69 417 z "},"¨":{"ha":486,"x_min":0,"x_max":347,"o":"m 208 486 l 208 556 l 278 625 l 347 625 l 347 486 l 208 486 m 0 486 l 0 556 l 69 625 l 139 625 l 139 486 l 0 486 z "},"˜":{"ha":694,"x_min":0,"x_max":556,"o":"m 139 417 l 0 417 l 0 486 l 139 625 l 208 625 l 347 486 l 417 486 l 417 556 l 556 556 l 556 486 l 417 347 l 347 347 l 208 486 l 139 486 l 139 417 z "},"·":{"ha":278,"x_min":0,"x_max":139,"o":"m 69 625 l 139 625 l 139 486 l 69 417 l 0 417 l 0 556 l 69 625 z "},"€":{"ha":764,"x_min":0,"x_max":625,"o":"m 625 139 l 625 69 l 556 0 l 139 0 l 69 69 l 69 208 l 0 208 l 0 278 l 69 278 l 69 347 l 0 347 l 0 417 l 69 417 l 69 556 l 139 625 l 625 625 l 625 556 l 556 486 l 208 486 l 208 422 l 486 417 l 486 347 l 208 347 l 208 278 l 486 278 l 486 208 l 208 208 l 208 139 l 625 139 z "},"‚":{"ha":278,"x_min":0,"x_max":139,"o":"m 0 139 l 69 139 l 139 69 l 139 0 l 139 -139 l 69 -139 l 69 0 l 0 0 l 0 139 z "},"¸":{"ha":417,"x_min":0,"x_max":278,"o":"m 0 -208 l 0 -139 l 69 -69 l 139 -69 l 139 0 l 278 0 l 278 -69 l 139 -208 l 0 -208 z "},"™":{"ha":729,"x_min":0,"x_max":590,"o":"m 0 451 l 35 486 l 243 486 l 278 451 l 278 417 l 174 417 l 174 174 l 139 174 l 104 208 l 104 417 l 0 417 l 0 451 m 313 174 l 278 208 l 278 451 l 313 486 l 347 486 l 347 451 l 417 382 l 451 382 l 521 451 l 521 486 l 556 486 l 590 451 l 590 208 l 556 174 l 521 174 l 521 382 l 451 313 l 417 313 l 347 382 l 347 174 l 313 174 z "},"©":{"ha":764,"x_min":0,"x_max":625,"o":"m 69 0 l 0 69 l 0 556 l 69 625 l 556 625 l 625 556 l 625 69 l 556 0 l 69 0 m 139 139 l 486 139 l 486 486 l 139 486 l 139 139 m 189 407 l 217 435 l 407 435 l 435 407 l 435 381 l 243 381 l 243 243 l 435 243 l 435 217 l 404 189 l 217 189 l 189 217 l 189 407 z "},"®":{"ha":764,"x_min":0,"x_max":625,"o":"m 69 0 l 0 69 l 0 556 l 69 625 l 556 625 l 625 556 l 625 69 l 556 0 l 69 0 m 139 139 l 486 139 l 486 486 l 139 486 l 139 139 m 243 297 l 243 189 l 217 189 l 189 217 l 189 407 l 217 435 l 407 435 l 435 407 l 435 326 l 407 297 l 381 297 l 435 243 l 435 189 l 408 189 l 381 217 l 381 243 l 326 297 l 243 297 m 243 381 l 243 353 l 271 326 l 353 326 l 381 353 l 381 381 l 243 381 z "},"ª":{"ha":451,"x_min":0,"x_max":313,"o":"m 0 590 l 35 625 l 278 625 l 313 590 l 313 347 l 278 313 l 35 313 l 0 347 l 0 451 l 35 486 l 208 486 l 243 518 l 243 556 l 0 556 l 0 590 m 69 382 l 243 382 l 243 417 l 208 451 l 104 451 l 69 417 l 69 382 z "},"²":{"ha":454,"x_min":0,"x_max":313,"o":"m 0 590 l 39 625 l 278 625 l 313 590 l 313 486 l 278 451 l 104 451 l 69 417 l 69 382 l 278 382 l 313 347 l 313 313 l 0 313 l 0 451 l 35 486 l 208 486 l 243 521 l 243 556 l 0 556 l 0 590 z "},"³":{"ha":451,"x_min":0,"x_max":313,"o":"m 0 590 l 35 625 l 278 625 l 313 588 l 313 521 l 278 486 l 278 451 l 313 417 l 313 347 l 278 313 l 35 313 l 0 347 l 0 382 l 243 382 l 243 417 l 208 451 l 104 451 l 104 486 l 208 486 l 243 521 l 243 558 l 0 556 l 0 590 z "},"¹":{"ha":417,"x_min":0,"x_max":278,"o":"m 0 313 l 0 347 l 35 382 l 104 382 l 104 556 l 0 556 l 0 590 l 35 625 l 174 625 l 174 382 l 240 382 l 278 344 l 278 313 l 0 313 z "},"º":{"ha":451,"x_min":0,"x_max":313,"o":"m 35 313 l 0 347 l 0 590 l 35 625 l 278 625 l 313 590 l 313 347 l 278 313 l 35 313 m 69 382 l 243 382 l 243 556 l 69 556 l 69 382 z "},"¾":{"ha":1042,"x_min":0,"x_max":903,"o":"m 0 590 l 35 625 l 278 625 l 313 588 l 313 521 l 278 486 l 278 451 l 313 417 l 313 347 l 278 313 l 35 313 l 0 347 l 0 382 l 243 382 l 243 417 l 208 451 l 104 451 l 104 486 l 208 486 l 243 521 l 243 558 l 0 556 l 0 590 m 208 0 l 139 69 l 694 625 l 764 556 l 208 0 m 660 313 l 625 313 l 590 278 l 590 174 l 625 139 l 799 139 l 831 104 l 833 0 l 868 0 l 903 35 l 903 278 l 868 313 l 833 313 l 833 208 l 799 174 l 694 174 l 660 208 l 660 313 z "},"¼":{"ha":1042,"x_min":0,"x_max":903,"o":"m 208 0 l 139 69 l 694 625 l 764 556 l 208 0 m 660 313 l 625 313 l 590 278 l 590 174 l 625 139 l 799 139 l 831 104 l 833 0 l 868 0 l 903 35 l 903 278 l 868 313 l 833 313 l 833 208 l 799 174 l 694 174 l 660 208 l 660 313 m 0 313 l 0 347 l 35 382 l 104 382 l 104 556 l 0 556 l 0 590 l 35 625 l 174 625 l 174 382 l 240 382 l 278 344 l 278 313 l 0 313 z "},"½":{"ha":1042,"x_min":0,"x_max":903,"o":"m 208 0 l 139 69 l 694 625 l 764 556 l 208 0 m 0 313 l 0 347 l 35 382 l 104 382 l 104 556 l 0 556 l 0 590 l 35 625 l 174 625 l 174 382 l 240 382 l 278 344 l 278 313 l 0 313 m 590 278 l 629 313 l 868 313 l 903 278 l 903 174 l 868 139 l 694 139 l 660 104 l 660 69 l 868 69 l 903 35 l 903 0 l 590 0 l 590 139 l 625 174 l 799 174 l 833 208 l 833 243 l 590 243 l 590 278 z "},"¥":{"ha":694,"x_min":0,"x_max":556,"o":"m 0 556 l 69 625 l 139 625 l 139 486 l 208 417 l 347 417 l 417 486 l 417 625 l 486 625 l 556 556 l 556 417 l 486 347 l 347 347 l 347 278 l 486 278 l 486 208 l 347 208 l 347 139 l 486 139 l 486 69 l 347 69 l 347 0 l 208 0 l 208 69 l 69 69 l 69 139 l 208 139 l 208 208 l 69 208 l 69 278 l 208 278 l 208 347 l 69 347 l 0 417 l 0 556 z "},"§":{"ha":764,"x_min":0,"x_max":625,"o":"m 625 139 l 625 69 l 556 0 l 69 0 l 0 69 l 0 347 l 69 417 l 486 417 l 486 486 l 0 486 l 0 556 l 69 625 l 556 625 l 625 556 l 625 278 l 556 208 l 139 208 l 139 139 l 625 139 m 139 278 l 486 278 l 486 347 l 139 347 l 139 278 z "},"ƒ":{"ha":764,"x_min":0,"x_max":625,"o":"m 0 69 l 69 139 l 139 139 l 139 278 l 69 278 l 69 347 l 139 349 l 139 556 l 208 625 l 556 625 l 625 556 l 625 486 l 278 486 l 278 347 l 417 347 l 417 278 l 278 278 l 278 69 l 208 0 l 0 0 l 0 69 z "},"£":{"ha":764,"x_min":0,"x_max":625,"o":"m 0 69 l 69 139 l 139 139 l 139 278 l 69 278 l 69 347 l 139 349 l 139 556 l 208 625 l 556 625 l 625 556 l 625 486 l 278 486 l 278 347 l 417 347 l 417 278 l 278 278 l 278 208 l 278 139 l 417 139 l 486 69 l 486 0 l 0 0 l 0 69 z "},"¤":{"ha":486,"x_min":0,"x_max":347,"o":"m 69 208 l 0 278 l 69 347 l 139 278 l 69 208 m 278 208 l 208 278 l 278 347 l 347 278 l 278 208 m 278 417 l 208 486 l 278 556 l 347 486 l 278 417 m 69 417 l 139 486 l 208 486 l 278 417 l 278 347 l 208 278 l 139 278 l 69 347 l 69 417 m 139 347 l 208 347 l 208 417 l 139 417 l 139 347 m 69 417 l 0 486 l 69 556 l 139 486 l 69 417 z "}}}
